Static Calibration
version=1
nRows=66
nColumns=19
inDegrees=yes
endheader
time	ground_force1_vx	ground_force1_vy	ground_force1_vz	ground_force1_px	ground_force1_py	ground_force1_pz	ground_torque1_x	ground_torque1_y	ground_torque1_z	ground_force2_vx	ground_force2_vy	ground_force2_vz	ground_force2_px	ground_force2_py	ground_force2_pz	ground_torque2_x	ground_torque2_y	ground_torque2_z
0.000000	3.826421	648.050659	-1.633168	0.833983	0.000000	-0.238697	0.000007	-0.585573	0.000010	-0.000000	-0.000000	0.000000	0.254000	0.000000	-0.232000	0.000000	0.000000	0.000000	
0.001000	3.687583	648.557434	-1.706395	0.833746	0.000000	-0.238639	0.000003	-0.565529	0.000044	-0.000000	-0.000000	0.000000	0.254000	0.000000	-0.232000	0.000000	0.000000	0.000000	
0.002000	4.148500	646.697021	-1.640961	0.834047	0.000000	-0.238650	0.000004	-0.509842	0.000007	-0.000000	-0.000000	0.000000	0.254000	0.000000	-0.232000	0.000000	0.000000	0.000000	
0.003000	4.189216	647.993286	-1.294040	0.833808	0.000000	-0.238793	0.000009	-0.569038	0.000013	-0.000000	-0.000000	0.000000	0.254000	0.000000	-0.232000	0.000000	0.000000	0.000000	
0.004000	3.901288	646.867554	-1.484173	0.833857	0.000000	-0.238505	0.000001	-0.515753	0.000033	-0.000000	-0.000000	0.000000	0.254000	0.000000	-0.232000	0.000000	0.000000	0.000000	
0.005000	3.642797	647.441467	-1.648884	0.833817	0.000000	-0.238628	0.000006	-0.545757	0.000028	-0.000000	-0.000000	0.000000	0.254000	0.000000	-0.232000	0.000000	0.000000	0.000000	
0.006000	3.918482	648.937500	-1.394125	0.833854	0.000000	-0.238488	0.000004	-0.638612	0.000030	-0.000000	-0.000000	0.000000	0.254000	0.000000	-0.232000	0.000000	0.000000	0.000000	
0.007000	4.154760	648.997498	-1.578316	0.833777	0.000000	-0.238637	0.000010	-0.626172	0.000047	-0.000000	-0.000000	0.000000	0.254000	0.000000	-0.232000	0.000000	0.000000	0.000000	
0.008000	4.233624	649.192627	-1.362800	0.833790	0.000000	-0.238404	0.000009	-0.555895	0.000030	-0.000000	-0.000000	0.000000	0.254000	0.000000	-0.232000	0.000000	0.000000	0.000000	
0.009000	4.172474	648.682312	-1.472488	0.833705	0.000000	-0.238787	0.000014	-0.561896	0.000058	-0.000000	-0.000000	0.000000	0.254000	0.000000	-0.232000	0.000000	0.000000	0.000000	
0.010000	3.880985	648.738770	-1.576452	0.833540	0.000000	-0.238733	0.000007	-0.538284	0.000039	-0.000000	-0.000000	0.000000	0.254000	0.000000	-0.232000	0.000000	0.000000	0.000000	
0.011000	4.036094	646.062805	-1.382045	0.834098	0.000000	-0.238905	0.000007	-0.562880	0.000002	-0.000000	-0.000000	0.000000	0.254000	0.000000	-0.232000	0.000000	0.000000	0.000000	
0.012000	4.334345	647.760376	-1.564188	0.833800	0.000000	-0.238695	0.000002	-0.577652	0.000026	-0.000000	-0.000000	0.000000	0.254000	0.000000	-0.232000	0.000000	0.000000	0.000000	
0.013000	3.999209	647.156250	-1.639382	0.833894	0.000000	-0.238657	0.000001	-0.510854	0.000022	-0.000000	-0.000000	0.000000	0.254000	0.000000	-0.232000	0.000000	0.000000	0.000000	
0.014000	4.171183	647.156250	-1.350907	0.833847	0.000000	-0.238602	0.000002	-0.660289	0.000025	-0.000000	-0.000000	0.000000	0.254000	0.000000	-0.232000	0.000000	0.000000	0.000000	
0.015000	3.816075	647.608887	-1.755139	0.833531	0.000000	-0.238475	0.000005	-0.540070	-0.000015	-0.000000	-0.000000	0.000000	0.254000	0.000000	-0.232000	0.000000	0.000000	0.000000	
0.016000	3.684600	649.662109	-1.527095	0.833533	0.000000	-0.238638	0.000001	-0.547525	0.000037	-0.000000	-0.000000	0.000000	0.254000	0.000000	-0.232000	0.000000	0.000000	0.000000	
0.017000	4.147116	647.815430	-1.476518	0.833660	0.000000	-0.238428	0.000008	-0.589700	0.000031	-0.000000	-0.000000	0.000000	0.254000	0.000000	-0.232000	0.000000	0.000000	0.000000	
0.018000	4.190017	647.559570	-1.218604	0.833735	0.000000	-0.238538	0.000011	-0.550820	0.000059	-0.000000	-0.000000	0.000000	0.254000	0.000000	-0.232000	0.000000	0.000000	0.000000	
0.019000	3.988151	647.760925	-1.456118	0.833851	0.000000	-0.238661	-0.000001	-0.480027	0.000008	-0.000000	-0.000000	0.000000	0.254000	0.000000	-0.232000	0.000000	0.000000	0.000000	
0.020000	4.187591	647.101746	-1.491582	0.833499	0.000000	-0.238466	0.000013	-0.583559	0.000046	-0.000000	-0.000000	0.000000	0.254000	0.000000	-0.232000	0.000000	0.000000	0.000000	
0.021000	4.400412	647.317810	-1.225602	0.833826	0.000000	-0.238434	0.000001	-0.619632	0.000032	-0.000000	-0.000000	0.000000	0.254000	0.000000	-0.232000	0.000000	0.000000	0.000000	
0.022000	3.939344	649.549438	-1.049968	0.833772	0.000000	-0.238569	0.000007	-0.633917	0.000009	-0.000000	-0.000000	0.000000	0.254000	0.000000	-0.232000	0.000000	0.000000	0.000000	
0.023000	4.229751	647.270081	-1.341394	0.834062	0.000000	-0.238499	0.000007	-0.581570	0.000022	-0.000000	-0.000000	0.000000	0.254000	0.000000	-0.232000	0.000000	0.000000	0.000000	
0.024000	4.231688	647.875000	-1.309614	0.833665	0.000000	-0.238751	0.000006	-0.623000	0.000013	-0.000000	-0.000000	0.000000	0.254000	0.000000	-0.232000	0.000000	0.000000	0.000000	
0.025000	4.213536	647.706970	-1.526510	0.833721	0.000000	-0.239071	0.000000	-0.572301	0.000019	-0.000000	-0.000000	0.000000	0.254000	0.000000	-0.232000	0.000000	0.000000	0.000000	
0.026000	4.151200	646.980408	-1.430075	0.833717	0.000000	-0.238841	0.000002	-0.534340	0.000038	-0.000000	-0.000000	0.000000	0.254000	0.000000	-0.232000	0.000000	0.000000	0.000000	
0.027000	4.237605	647.707153	-1.383886	0.833490	0.000000	-0.238654	0.000006	-0.547907	0.000011	-0.000000	-0.000000	0.000000	0.254000	0.000000	-0.232000	0.000000	0.000000	0.000000	
0.028000	4.287220	646.812500	-1.492995	0.833576	0.000000	-0.238740	0.000005	-0.608141	0.000031	-0.000000	-0.000000	0.000000	0.254000	0.000000	-0.232000	0.000000	0.000000	0.000000	
0.029000	4.196471	646.920959	-1.309342	0.833766	0.000000	-0.238672	0.000011	-0.660375	0.000036	-0.000000	-0.000000	0.000000	0.254000	0.000000	-0.232000	0.000000	0.000000	0.000000	
0.030000	4.453598	647.391602	-1.459028	0.833782	0.000000	-0.239109	0.000005	-0.622639	0.000020	-0.000000	-0.000000	0.000000	0.254000	0.000000	-0.232000	0.000000	0.000000	0.000000	
0.031000	4.175679	647.088196	-1.109815	0.833704	0.000000	-0.238789	0.000008	-0.575125	-0.000001	-0.000000	-0.000000	0.000000	0.254000	0.000000	-0.232000	0.000000	0.000000	0.000000	
0.032000	3.933125	648.508423	-1.709502	0.833133	0.000000	-0.238738	0.000009	-0.628660	0.000010	-0.000000	-0.000000	0.000000	0.254000	0.000000	-0.232000	0.000000	0.000000	0.000000	
0.033000	4.300389	648.105713	-1.656600	0.833628	0.000000	-0.238555	0.000002	-0.607010	0.000011	-0.000000	-0.000000	0.000000	0.254000	0.000000	-0.232000	0.000000	0.000000	0.000000	
0.034000	4.337761	647.500000	-1.237873	0.833657	0.000000	-0.238366	0.000011	-0.641826	0.000024	-0.000000	-0.000000	0.000000	0.254000	0.000000	-0.232000	0.000000	0.000000	0.000000	
0.035000	4.856207	647.392029	-0.745730	0.833730	0.000000	-0.238527	0.000003	-0.641230	-0.000008	-0.000000	-0.000000	0.000000	0.254000	0.000000	-0.232000	0.000000	0.000000	0.000000	
0.036000	4.305065	646.694763	-1.253153	0.833667	0.000000	-0.238775	0.000006	-0.633801	0.000048	-0.000000	-0.000000	0.000000	0.254000	0.000000	-0.232000	0.000000	0.000000	0.000000	
0.037000	4.285198	646.234070	-1.233785	0.833724	0.000000	-0.238619	0.000008	-0.631879	0.000027	-0.000000	-0.000000	0.000000	0.254000	0.000000	-0.232000	0.000000	0.000000	0.000000	
0.038000	4.541529	647.494324	-1.496231	0.833630	0.000000	-0.238810	0.000011	-0.622855	0.000009	-0.000000	-0.000000	0.000000	0.254000	0.000000	-0.232000	0.000000	0.000000	0.000000	
0.039000	4.302717	648.803223	-1.294562	0.833358	0.000000	-0.238726	0.000004	-0.726138	-0.000001	-0.000000	-0.000000	0.000000	0.254000	0.000000	-0.232000	0.000000	0.000000	0.000000	
0.040000	4.309130	646.346313	-1.474343	0.833762	0.000000	-0.238704	0.000012	-0.602980	0.000025	-0.000000	-0.000000	0.000000	0.254000	0.000000	-0.232000	0.000000	0.000000	0.000000	
0.041000	4.705019	647.928772	-1.615670	0.833593	0.000000	-0.238657	0.000014	-0.661707	0.000040	-0.000000	-0.000000	0.000000	0.254000	0.000000	-0.232000	0.000000	0.000000	0.000000	
0.042000	4.387691	648.052551	-1.451154	0.833444	0.000000	-0.238649	0.000006	-0.516500	0.000042	-0.000000	-0.000000	0.000000	0.254000	0.000000	-0.232000	0.000000	0.000000	0.000000	
0.043000	4.394258	647.376038	-1.021105	0.833664	0.000000	-0.238447	0.000010	-0.723891	0.000064	-0.000000	-0.000000	0.000000	0.254000	0.000000	-0.232000	0.000000	0.000000	0.000000	
0.044000	4.686753	648.508789	-1.208542	0.833578	0.000000	-0.238727	0.000005	-0.649871	0.000009	-0.000000	-0.000000	0.000000	0.254000	0.000000	-0.232000	0.000000	0.000000	0.000000	
0.045000	4.316109	648.052856	-1.280040	0.833677	0.000000	-0.238485	0.000005	-0.604368	0.000042	-0.000000	-0.000000	0.000000	0.254000	0.000000	-0.232000	0.000000	0.000000	0.000000	
0.046000	4.700168	646.932007	-1.039683	0.833648	0.000000	-0.238932	0.000007	-0.593341	0.000009	-0.000000	-0.000000	0.000000	0.254000	0.000000	-0.232000	0.000000	0.000000	0.000000	
0.047000	4.379995	645.889282	-1.659982	0.833669	0.000000	-0.238769	0.000007	-0.596409	0.000031	-0.000000	-0.000000	0.000000	0.254000	0.000000	-0.232000	0.000000	0.000000	0.000000	
0.048000	4.734632	647.085083	-1.417622	0.833683	0.000000	-0.238652	0.000009	-0.566268	0.000028	-0.000000	-0.000000	0.000000	0.254000	0.000000	-0.232000	0.000000	0.000000	0.000000	
0.049000	4.533359	648.397095	-1.744801	0.833390	0.000000	-0.238683	0.000012	-0.595190	0.000016	-0.000000	-0.000000	0.000000	0.254000	0.000000	-0.232000	0.000000	0.000000	0.000000	
0.050000	4.387614	647.553467	-1.796948	0.833477	0.000000	-0.238557	0.000005	-0.569523	0.000023	-0.000000	-0.000000	0.000000	0.254000	0.000000	-0.232000	0.000000	0.000000	0.000000	
0.051000	4.875764	647.683411	-1.342377	0.833524	0.000000	-0.238521	0.000012	-0.644770	0.000053	-0.000000	-0.000000	0.000000	0.254000	0.000000	-0.232000	0.000000	0.000000	0.000000	
0.052000	4.976357	646.865906	-1.716484	0.833520	0.000000	-0.238340	0.000009	-0.609454	0.000026	-0.000000	-0.000000	0.000000	0.254000	0.000000	-0.232000	0.000000	0.000000	0.000000	
0.053000	4.737138	647.267883	-1.733770	0.833477	0.000000	-0.238769	0.000008	-0.623837	0.000031	-0.000000	-0.000000	0.000000	0.254000	0.000000	-0.232000	0.000000	0.000000	0.000000	
0.054000	4.622194	647.875000	-1.766004	0.833542	0.000000	-0.238734	0.000005	-0.626672	0.000024	-0.000000	-0.000000	0.000000	0.254000	0.000000	-0.232000	0.000000	0.000000	0.000000	
0.055000	4.434498	647.593872	-1.467544	0.833741	0.000000	-0.238824	0.000011	-0.604914	0.000044	-0.000000	-0.000000	0.000000	0.254000	0.000000	-0.232000	0.000000	0.000000	0.000000	
0.056000	4.545692	646.178772	-1.174576	0.833769	0.000000	-0.238860	0.000003	-0.652174	0.000024	-0.000000	-0.000000	0.000000	0.254000	0.000000	-0.232000	0.000000	0.000000	0.000000	
0.057000	4.479278	646.865723	-1.613355	0.833572	0.000000	-0.238841	0.000008	-0.666497	0.000026	-0.000000	-0.000000	0.000000	0.254000	0.000000	-0.232000	0.000000	0.000000	0.000000	
0.058000	5.303212	647.320740	-1.520047	0.833695	0.000000	-0.238861	0.000009	-0.621129	0.000039	-0.000000	-0.000000	0.000000	0.254000	0.000000	-0.232000	0.000000	0.000000	0.000000	
0.059000	4.766177	648.165588	-1.403444	0.833465	0.000000	-0.238730	0.000011	-0.695990	0.000018	-0.000000	-0.000000	0.000000	0.254000	0.000000	-0.232000	0.000000	0.000000	0.000000	
0.060000	4.316316	647.647888	-1.555780	0.833656	0.000000	-0.238638	0.000011	-0.594668	0.000026	-0.000000	-0.000000	0.000000	0.254000	0.000000	-0.232000	0.000000	0.000000	0.000000	
0.061000	4.332500	646.739441	-1.219522	0.833571	0.000000	-0.238577	0.000007	-0.631565	0.000011	-0.000000	-0.000000	0.000000	0.254000	0.000000	-0.232000	0.000000	0.000000	0.000000	
0.062000	4.444457	648.176453	-1.392200	0.833304	0.000000	-0.238592	0.000008	-0.684873	0.000035	-0.000000	-0.000000	0.000000	0.254000	0.000000	-0.232000	0.000000	0.000000	0.000000	
0.063000	4.704784	646.178223	-1.134741	0.833890	0.000000	-0.238683	0.000011	-0.672296	0.000055	-0.000000	-0.000000	0.000000	0.254000	0.000000	-0.232000	0.000000	0.000000	0.000000	
0.064000	4.796844	646.696899	-1.417921	0.833631	0.000000	-0.238656	0.000013	-0.717132	0.000052	-0.000000	-0.000000	0.000000	0.254000	0.000000	-0.232000	0.000000	0.000000	0.000000	
0.065000	4.546554	646.178040	-1.552367	0.833629	0.000000	-0.238746	0.000002	-0.738985	0.000033	-0.000000	-0.000000	0.000000	0.254000	0.000000	-0.232000	0.000000	0.000000	0.000000	
